<svg xmlns="http://www.w3.org/2000/svg" xmlns:xlink="http://www.w3.org/1999/xlink" width="500" zoomAndPan="magnify" viewBox="0 0 375 374.999991" height="500" preserveAspectRatio="xMidYMid meet" version="1.0"><defs><g/><clipPath id="1f1fab4601"><path d="M 294 96.367188 L 339.5 96.367188 L 339.5 193.117188 L 294 193.117188 Z M 294 96.367188 " clip-rule="nonzero"/></clipPath></defs><g clip-path="url(#1f1fab4601)"><path fill="#ffffff" d="M 294 97.699219 C 300.515625 95.15625 308.429688 96.410156 314.90625 100.179688 C 321.476562 103.90625 326.613281 110.148438 329.769531 116.585938 C 332.988281 123.027344 334.226562 129.660156 334.484375 134.335938 C 334.78125 139.070312 334.097656 141.851562 334.265625 141.949219 C 335.972656 138.292969 336.429688 133.398438 336.238281 129.515625 C 336.085938 125.617188 335.289062 122.734375 335.316406 122.746094 C 339.683594 132.988281 340.199219 143.238281 338.824219 151.699219 C 337.4375 160.234375 334.160156 166.980469 330.648438 171.863281 C 327.121094 176.78125 323.359375 179.832031 320.5 181.746094 C 317.609375 183.65625 315.621094 184.425781 314.886719 184.683594 C 317.65625 181.894531 320.390625 178.167969 322.320312 175.003906 C 323.230469 173.542969 325.332031 169.273438 325.960938 167.613281 C 327.992188 162.515625 329.179688 157.113281 329.59375 151.714844 C 330.585938 137.390625 325.25 122.8125 315.597656 114.492188 C 320.21875 118.808594 323.785156 124.761719 325.917969 131.199219 C 328.65625 139.382812 329.113281 148.542969 327.207031 157.191406 C 325.335938 165.851562 321.109375 173.996094 315.1875 180.4375 C 314.921875 180.734375 311.703125 184.351562 307.804688 187.324219 C 303.996094 190.390625 299.503906 192.808594 298.816406 192.933594 C 297.191406 193.28125 296.050781 193.121094 295.378906 192.933594 C 295.078125 192.84375 295.222656 192.417969 295.597656 192.28125 C 301.046875 190.300781 306.308594 186.898438 309.835938 183.839844 C 313.296875 180.921875 315.546875 176.625 315.8125 172.605469 C 316.890625 159.152344 314.378906 148.738281 314.449219 148.71875 C 316.914062 151.957031 319.808594 153.25 319.832031 153.222656 C 317.097656 147.855469 315.5 143.886719 314.632812 140.980469 C 313.757812 138.117188 313.617188 136.316406 313.628906 136.3125 C 317.269531 139.203125 319.238281 139.457031 319.257812 139.40625 C 311.160156 129.097656 307.121094 120.386719 302.632812 112.359375 C 298.535156 104.636719 293.984375 97.597656 294 97.699219 " fill-opacity="1" fill-rule="nonzero"/></g><g fill="#ffffff" fill-opacity="1"><g transform="translate(29.637684, 195.234941)"><g><path d="M 31.453125 -34.125 C 31.453125 -31.832031 30.953125 -29.582031 29.953125 -27.375 C 28.953125 -25.164062 27.625 -23.179688 25.96875 -21.421875 C 24.3125 -19.660156 22.421875 -18.21875 20.296875 -17.09375 C 18.179688 -15.96875 16 -15.34375 13.75 -15.21875 C 13.707031 -14.445312 13.675781 -13.476562 13.65625 -12.3125 C 13.632812 -11.144531 13.554688 -9.925781 13.421875 -8.65625 C 13.296875 -7.382812 13.117188 -6.109375 12.890625 -4.828125 C 12.660156 -3.554688 12.320312 -2.410156 11.875 -1.390625 C 11.425781 -0.378906 10.851562 0.441406 10.15625 1.078125 C 9.457031 1.710938 8.597656 2.03125 7.578125 2.03125 C 6.390625 2.03125 5.441406 1.640625 4.734375 0.859375 C 4.035156 0.078125 3.503906 -0.863281 3.140625 -1.96875 C 2.785156 -3.070312 2.546875 -4.226562 2.421875 -5.4375 C 2.296875 -6.644531 2.210938 -7.675781 2.171875 -8.53125 C 2.078125 -9.757812 2.019531 -10.96875 2 -12.15625 C 1.976562 -13.34375 1.96875 -14.550781 1.96875 -15.78125 C 1.96875 -16.332031 1.96875 -17.363281 1.96875 -18.875 C 1.96875 -20.382812 1.976562 -22.101562 2 -24.03125 C 2.019531 -25.957031 2.050781 -27.972656 2.09375 -30.078125 C 2.144531 -32.179688 2.210938 -34.132812 2.296875 -35.9375 C 2.378906 -37.738281 2.472656 -39.273438 2.578125 -40.546875 C 2.679688 -41.828125 2.816406 -42.570312 2.984375 -42.78125 C 3.035156 -42.820312 3.164062 -42.914062 3.375 -43.0625 C 3.582031 -43.207031 3.8125 -43.351562 4.0625 -43.5 C 4.320312 -43.65625 4.554688 -43.796875 4.765625 -43.921875 C 4.984375 -44.046875 5.132812 -44.132812 5.21875 -44.1875 C 7.175781 -45.28125 9.320312 -46.226562 11.65625 -47.03125 C 13.988281 -47.84375 16.300781 -48.25 18.59375 -48.25 C 20.539062 -48.25 22.3125 -47.859375 23.90625 -47.078125 C 25.5 -46.296875 26.859375 -45.253906 27.984375 -43.953125 C 29.109375 -42.660156 29.96875 -41.15625 30.5625 -39.4375 C 31.15625 -37.71875 31.453125 -35.945312 31.453125 -34.125 Z M 20.4375 -32.65625 C 20.4375 -33.507812 20.234375 -34.253906 19.828125 -34.890625 C 19.421875 -35.523438 18.753906 -35.84375 17.828125 -35.84375 C 17.015625 -35.84375 16.207031 -35.679688 15.40625 -35.359375 C 14.601562 -35.046875 13.859375 -34.71875 13.171875 -34.375 C 13.304688 -32.882812 13.425781 -31.441406 13.53125 -30.046875 C 13.632812 -28.648438 13.644531 -27.207031 13.5625 -25.71875 C 14.238281 -26.0625 14.976562 -26.453125 15.78125 -26.890625 C 16.59375 -27.335938 17.335938 -27.835938 18.015625 -28.390625 C 18.691406 -28.941406 19.265625 -29.566406 19.734375 -30.265625 C 20.203125 -30.972656 20.4375 -31.769531 20.4375 -32.65625 Z M 20.4375 -32.65625 "/></g></g><g transform="translate(60.706967, 195.234941)"><g><path d="M 13.8125 -38.578125 C 13.8125 -36.285156 13.710938 -33.984375 13.515625 -31.671875 C 13.328125 -29.359375 13.234375 -27.035156 13.234375 -24.703125 C 13.234375 -21.691406 13.328125 -18.675781 13.515625 -15.65625 C 13.710938 -12.644531 13.8125 -9.613281 13.8125 -6.5625 C 13.8125 -5.789062 13.769531 -4.925781 13.6875 -3.96875 C 13.601562 -3.019531 13.398438 -2.140625 13.078125 -1.328125 C 12.765625 -0.523438 12.285156 0.148438 11.640625 0.703125 C 11.003906 1.253906 10.160156 1.53125 9.109375 1.53125 C 8.085938 1.53125 7.203125 1.03125 6.453125 0.03125 C 5.710938 -0.96875 5.097656 -2.238281 4.609375 -3.78125 C 4.128906 -5.332031 3.726562 -7.0625 3.40625 -8.96875 C 3.082031 -10.882812 2.847656 -12.742188 2.703125 -14.546875 C 2.554688 -16.347656 2.453125 -18 2.390625 -19.5 C 2.328125 -21.007812 2.296875 -22.128906 2.296875 -22.859375 C 2.296875 -23.660156 2.328125 -24.820312 2.390625 -26.34375 C 2.453125 -27.875 2.585938 -29.53125 2.796875 -31.3125 C 3.015625 -33.101562 3.300781 -34.921875 3.65625 -36.765625 C 4.019531 -38.609375 4.5 -40.28125 5.09375 -41.78125 C 5.6875 -43.289062 6.394531 -44.523438 7.21875 -45.484375 C 8.050781 -46.441406 9.039062 -46.921875 10.1875 -46.921875 C 11.125 -46.921875 11.832031 -46.613281 12.3125 -46 C 12.800781 -45.382812 13.148438 -44.640625 13.359375 -43.765625 C 13.578125 -42.898438 13.707031 -41.988281 13.75 -41.03125 C 13.789062 -40.070312 13.8125 -39.253906 13.8125 -38.578125 Z M 13.8125 -38.578125 "/></g></g><g transform="translate(77.451273, 195.234941)"><g><path d="M 29.796875 -18.203125 C 29.796875 -15.867188 29.5625 -13.554688 29.09375 -11.265625 C 28.625 -8.972656 27.835938 -6.925781 26.734375 -5.125 C 25.628906 -3.320312 24.15625 -1.867188 22.3125 -0.765625 C 20.46875 0.335938 18.164062 0.890625 15.40625 0.890625 C 12.6875 0.890625 10.414062 0.347656 8.59375 -0.734375 C 6.769531 -1.816406 5.316406 -3.25 4.234375 -5.03125 C 3.148438 -6.8125 2.382812 -8.828125 1.9375 -11.078125 C 1.488281 -13.328125 1.265625 -15.617188 1.265625 -17.953125 C 1.265625 -20.492188 1.566406 -23.019531 2.171875 -25.53125 C 2.296875 -26.207031 2.535156 -27.148438 2.890625 -28.359375 C 3.253906 -29.566406 3.722656 -30.753906 4.296875 -31.921875 C 4.867188 -33.085938 5.523438 -34.09375 6.265625 -34.9375 C 7.015625 -35.789062 7.832031 -36.21875 8.71875 -36.21875 C 9.570312 -36.21875 10.25 -35.984375 10.75 -35.515625 C 11.257812 -35.054688 11.660156 -34.472656 11.953125 -33.765625 C 12.253906 -33.066406 12.445312 -32.320312 12.53125 -31.53125 C 12.625 -30.75 12.671875 -30.039062 12.671875 -29.40625 C 12.671875 -28.4375 12.59375 -27.484375 12.4375 -26.546875 C 12.289062 -25.609375 12.132812 -24.675781 11.96875 -23.75 C 11.800781 -22.46875 11.640625 -21.191406 11.484375 -19.921875 C 11.335938 -18.648438 11.265625 -17.378906 11.265625 -16.109375 C 11.265625 -15.472656 11.296875 -14.757812 11.359375 -13.96875 C 11.421875 -13.1875 11.578125 -12.429688 11.828125 -11.703125 C 12.085938 -10.984375 12.453125 -10.378906 12.921875 -9.890625 C 13.390625 -9.410156 14.046875 -9.171875 14.890625 -9.171875 C 15.992188 -9.171875 16.875 -9.46875 17.53125 -10.0625 C 18.195312 -10.65625 18.6875 -11.394531 19 -12.28125 C 19.320312 -13.175781 19.523438 -14.128906 19.609375 -15.140625 C 19.691406 -16.160156 19.734375 -17.097656 19.734375 -17.953125 C 19.734375 -19.816406 19.601562 -21.648438 19.34375 -23.453125 C 19.09375 -25.265625 18.863281 -27.101562 18.65625 -28.96875 C 18.613281 -29.175781 18.59375 -29.472656 18.59375 -29.859375 C 18.59375 -30.492188 18.695312 -31.128906 18.90625 -31.765625 C 19.113281 -32.398438 19.410156 -32.972656 19.796875 -33.484375 C 20.179688 -33.992188 20.648438 -34.40625 21.203125 -34.71875 C 21.753906 -35.039062 22.367188 -35.203125 23.046875 -35.203125 C 23.984375 -35.203125 24.8125 -34.875 25.53125 -34.21875 C 26.25 -33.5625 26.851562 -32.710938 27.34375 -31.671875 C 27.832031 -30.628906 28.234375 -29.460938 28.546875 -28.171875 C 28.867188 -26.878906 29.125 -25.601562 29.3125 -24.34375 C 29.507812 -23.09375 29.640625 -21.914062 29.703125 -20.8125 C 29.765625 -19.707031 29.796875 -18.835938 29.796875 -18.203125 Z M 29.796875 -18.203125 "/></g></g><g transform="translate(109.220887, 195.234941)"><g><path d="M 40.546875 -21 C 40.546875 -20.195312 40.546875 -19.101562 40.546875 -17.71875 C 40.546875 -16.34375 40.515625 -14.847656 40.453125 -13.234375 C 40.390625 -11.628906 40.25 -10.007812 40.03125 -8.375 C 39.820312 -6.738281 39.492188 -5.257812 39.046875 -3.9375 C 38.609375 -2.625 38.046875 -1.539062 37.359375 -0.6875 C 36.679688 0.15625 35.816406 0.578125 34.765625 0.578125 C 33.828125 0.578125 33.113281 0.1875 32.625 -0.59375 C 32.132812 -1.382812 31.78125 -2.3125 31.5625 -3.375 C 31.351562 -4.4375 31.238281 -5.519531 31.21875 -6.625 C 31.195312 -7.726562 31.1875 -8.597656 31.1875 -9.234375 C 31.1875 -11.140625 31.25 -13.003906 31.375 -14.828125 C 31.507812 -16.648438 31.578125 -18.519531 31.578125 -20.4375 C 31.578125 -20.644531 31.578125 -21.023438 31.578125 -21.578125 C 31.578125 -22.128906 31.535156 -22.679688 31.453125 -23.234375 C 31.367188 -23.785156 31.226562 -24.273438 31.03125 -24.703125 C 30.84375 -25.128906 30.554688 -25.34375 30.171875 -25.34375 C 29.410156 -25.34375 28.796875 -24.945312 28.328125 -24.15625 C 27.859375 -23.375 27.472656 -22.453125 27.171875 -21.390625 C 26.878906 -20.328125 26.671875 -19.273438 26.546875 -18.234375 C 26.421875 -17.191406 26.335938 -16.421875 26.296875 -15.921875 C 26.210938 -15.367188 26.132812 -14.539062 26.0625 -13.4375 C 26 -12.332031 25.914062 -11.117188 25.8125 -9.796875 C 25.707031 -8.484375 25.535156 -7.132812 25.296875 -5.75 C 25.066406 -4.375 24.769531 -3.125 24.40625 -2 C 24.050781 -0.875 23.597656 0.046875 23.046875 0.765625 C 22.492188 1.484375 21.8125 1.84375 21 1.84375 C 19.988281 1.84375 19.207031 1.394531 18.65625 0.5 C 18.101562 -0.382812 17.695312 -1.421875 17.4375 -2.609375 C 17.1875 -3.796875 17.03125 -5.003906 16.96875 -6.234375 C 16.90625 -7.460938 16.875 -8.421875 16.875 -9.109375 C 16.875 -9.828125 16.882812 -10.523438 16.90625 -11.203125 C 16.925781 -11.878906 16.9375 -12.582031 16.9375 -13.3125 C 16.9375 -13.601562 16.9375 -14.085938 16.9375 -14.765625 C 16.9375 -15.441406 16.925781 -16.191406 16.90625 -17.015625 C 16.882812 -17.847656 16.835938 -18.707031 16.765625 -19.59375 C 16.703125 -20.488281 16.609375 -21.304688 16.484375 -22.046875 C 16.359375 -22.796875 16.164062 -23.40625 15.90625 -23.875 C 15.65625 -24.34375 15.363281 -24.578125 15.03125 -24.578125 C 14.476562 -24.578125 13.96875 -24.222656 13.5 -23.515625 C 13.03125 -22.816406 12.625 -21.988281 12.28125 -21.03125 C 11.945312 -20.082031 11.679688 -19.140625 11.484375 -18.203125 C 11.296875 -17.273438 11.203125 -16.597656 11.203125 -16.171875 L 11.203125 -15.78125 C 11.203125 -13.75 11.328125 -11.753906 11.578125 -9.796875 C 11.835938 -7.847656 11.96875 -5.851562 11.96875 -3.8125 C 11.96875 -2.625 11.582031 -1.53125 10.8125 -0.53125 C 10.050781 0.457031 8.992188 0.953125 7.640625 0.953125 C 6.660156 0.953125 5.851562 0.582031 5.21875 -0.15625 C 4.582031 -0.894531 4.050781 -1.859375 3.625 -3.046875 C 3.195312 -4.242188 2.867188 -5.550781 2.640625 -6.96875 C 2.410156 -8.394531 2.25 -9.796875 2.15625 -11.171875 C 2.070312 -12.546875 2.019531 -13.796875 2 -14.921875 C 1.976562 -16.046875 1.96875 -16.882812 1.96875 -17.4375 C 1.96875 -18.070312 1.957031 -19.003906 1.9375 -20.234375 C 1.914062 -21.472656 1.9375 -22.8125 2 -24.25 C 2.0625 -25.695312 2.175781 -27.171875 2.34375 -28.671875 C 2.519531 -30.179688 2.796875 -31.550781 3.171875 -32.78125 C 3.554688 -34.007812 4.054688 -35.015625 4.671875 -35.796875 C 5.296875 -36.585938 6.09375 -36.984375 7.0625 -36.984375 C 8.164062 -36.984375 9.066406 -36.6875 9.765625 -36.09375 C 10.472656 -35.5 10.828125 -34.609375 10.828125 -33.421875 C 10.828125 -33.171875 10.816406 -32.914062 10.796875 -32.65625 C 10.773438 -32.40625 10.738281 -32.171875 10.6875 -31.953125 C 11.15625 -32.628906 11.726562 -33.316406 12.40625 -34.015625 C 13.09375 -34.722656 13.828125 -35.363281 14.609375 -35.9375 C 15.390625 -36.507812 16.226562 -36.972656 17.125 -37.328125 C 18.019531 -37.691406 18.910156 -37.875 19.796875 -37.875 C 20.648438 -37.875 21.414062 -37.640625 22.09375 -37.171875 C 22.769531 -36.710938 23.363281 -36.128906 23.875 -35.421875 C 24.382812 -34.722656 24.804688 -33.96875 25.140625 -33.15625 C 25.484375 -32.351562 25.71875 -31.59375 25.84375 -30.875 C 26.269531 -31.632812 26.789062 -32.40625 27.40625 -33.1875 C 28.019531 -33.976562 28.6875 -34.671875 29.40625 -35.265625 C 30.132812 -35.859375 30.929688 -36.34375 31.796875 -36.71875 C 32.671875 -37.101562 33.570312 -37.296875 34.5 -37.296875 C 35.394531 -37.296875 36.160156 -36.976562 36.796875 -36.34375 C 37.429688 -35.707031 37.984375 -34.890625 38.453125 -33.890625 C 38.921875 -32.898438 39.28125 -31.773438 39.53125 -30.515625 C 39.789062 -29.265625 40.003906 -28.035156 40.171875 -26.828125 C 40.335938 -25.617188 40.441406 -24.492188 40.484375 -23.453125 C 40.523438 -22.421875 40.546875 -21.601562 40.546875 -21 Z M 40.546875 -21 "/></g></g><g transform="translate(152.068484, 195.234941)"><g><path d="M 28.578125 -11.328125 C 28.578125 -9.890625 28.117188 -8.476562 27.203125 -7.09375 C 26.296875 -5.71875 25.148438 -4.488281 23.765625 -3.40625 C 22.390625 -2.320312 20.914062 -1.453125 19.34375 -0.796875 C 17.78125 -0.140625 16.34375 0.1875 15.03125 0.1875 C 12.78125 0.1875 10.769531 -0.375 9 -1.5 C 7.238281 -2.625 5.765625 -4.054688 4.578125 -5.796875 C 3.390625 -7.535156 2.488281 -9.453125 1.875 -11.546875 C 1.257812 -13.648438 0.953125 -15.703125 0.953125 -17.703125 C 0.953125 -19.816406 1.25 -22.082031 1.84375 -24.5 C 2.4375 -26.925781 3.335938 -29.15625 4.546875 -31.1875 C 5.753906 -33.226562 7.28125 -34.925781 9.125 -36.28125 C 10.976562 -37.644531 13.175781 -38.328125 15.71875 -38.328125 C 17.164062 -38.328125 18.546875 -38.082031 19.859375 -37.59375 C 21.171875 -37.101562 22.316406 -36.410156 23.296875 -35.515625 C 24.273438 -34.628906 25.0625 -33.570312 25.65625 -32.34375 C 26.25 -31.113281 26.546875 -29.734375 26.546875 -28.203125 C 26.546875 -26.203125 26.117188 -24.332031 25.265625 -22.59375 C 24.421875 -20.851562 23.296875 -19.347656 21.890625 -18.078125 C 20.492188 -16.804688 18.882812 -15.773438 17.0625 -14.984375 C 15.238281 -14.203125 13.367188 -13.769531 11.453125 -13.6875 C 11.628906 -12.457031 12.128906 -11.566406 12.953125 -11.015625 C 13.785156 -10.460938 14.773438 -10.1875 15.921875 -10.1875 C 16.765625 -10.1875 17.585938 -10.394531 18.390625 -10.8125 C 19.203125 -11.238281 19.988281 -11.71875 20.75 -12.25 C 21.519531 -12.78125 22.273438 -13.257812 23.015625 -13.6875 C 23.753906 -14.113281 24.503906 -14.328125 25.265625 -14.328125 C 26.117188 -14.328125 26.882812 -14.050781 27.5625 -13.5 C 28.238281 -12.945312 28.578125 -12.222656 28.578125 -11.328125 Z M 18.265625 -26.921875 C 18.265625 -27.472656 18.113281 -28.046875 17.8125 -28.640625 C 17.519531 -29.234375 17.054688 -29.53125 16.421875 -29.53125 C 15.492188 -29.53125 14.707031 -29.285156 14.0625 -28.796875 C 13.425781 -28.316406 12.894531 -27.703125 12.46875 -26.953125 C 12.050781 -26.210938 11.722656 -25.414062 11.484375 -24.5625 C 11.253906 -23.71875 11.117188 -22.9375 11.078125 -22.21875 C 11.671875 -22.34375 12.378906 -22.507812 13.203125 -22.71875 C 14.035156 -22.9375 14.820312 -23.222656 15.5625 -23.578125 C 16.300781 -23.941406 16.9375 -24.398438 17.46875 -24.953125 C 18 -25.503906 18.265625 -26.160156 18.265625 -26.921875 Z M 18.265625 -26.921875 "/></g></g><g transform="translate(181.291436, 195.234941)"><g><path d="M 30.046875 -32.40625 C 30.046875 -31.59375 29.945312 -30.738281 29.75 -29.84375 C 29.5625 -28.957031 29.253906 -28.132812 28.828125 -27.375 C 28.410156 -26.613281 27.863281 -25.976562 27.1875 -25.46875 C 26.507812 -24.957031 25.679688 -24.703125 24.703125 -24.703125 C 23.210938 -24.703125 22.109375 -24.96875 21.390625 -25.5 C 20.671875 -26.03125 20.160156 -26.695312 19.859375 -27.5 C 19.566406 -28.300781 19.410156 -29.160156 19.390625 -30.078125 C 19.367188 -30.992188 19.332031 -31.851562 19.28125 -32.65625 C 19.238281 -33.457031 19.101562 -34.125 18.875 -34.65625 C 18.644531 -35.1875 18.144531 -35.453125 17.375 -35.453125 C 16.53125 -35.453125 15.789062 -35.144531 15.15625 -34.53125 C 14.519531 -33.914062 13.96875 -33.117188 13.5 -32.140625 C 13.03125 -31.171875 12.632812 -30.066406 12.3125 -28.828125 C 12 -27.597656 11.742188 -26.378906 11.546875 -25.171875 C 11.359375 -23.960938 11.222656 -22.816406 11.140625 -21.734375 C 11.054688 -20.648438 11.015625 -19.769531 11.015625 -19.09375 C 11.015625 -18.207031 11.046875 -17.144531 11.109375 -15.90625 C 11.171875 -14.675781 11.367188 -13.5 11.703125 -12.375 C 12.046875 -11.25 12.554688 -10.296875 13.234375 -9.515625 C 13.921875 -8.734375 14.898438 -8.34375 16.171875 -8.34375 C 17.015625 -8.34375 17.835938 -8.445312 18.640625 -8.65625 C 19.453125 -8.863281 20.257812 -9.101562 21.0625 -9.375 C 21.875 -9.65625 22.691406 -9.898438 23.515625 -10.109375 C 24.347656 -10.328125 25.1875 -10.4375 26.03125 -10.4375 C 27.007812 -10.4375 27.816406 -10.039062 28.453125 -9.25 C 29.085938 -8.46875 29.40625 -7.59375 29.40625 -6.625 C 29.40625 -5.257812 28.976562 -3.992188 28.125 -2.828125 C 27.28125 -1.660156 26.234375 -0.632812 24.984375 0.25 C 23.734375 1.144531 22.375 1.847656 20.90625 2.359375 C 19.445312 2.867188 18.125 3.125 16.9375 3.125 C 13.875 3.125 11.28125 2.429688 9.15625 1.046875 C 7.039062 -0.328125 5.320312 -2.109375 4 -4.296875 C 2.6875 -6.484375 1.742188 -8.921875 1.171875 -11.609375 C 0.597656 -14.304688 0.3125 -16.992188 0.3125 -19.671875 C 0.3125 -21.453125 0.484375 -23.398438 0.828125 -25.515625 C 1.171875 -27.640625 1.679688 -29.773438 2.359375 -31.921875 C 3.035156 -34.066406 3.894531 -36.132812 4.9375 -38.125 C 5.976562 -40.125 7.195312 -41.882812 8.59375 -43.40625 C 9.988281 -44.9375 11.566406 -46.171875 13.328125 -47.109375 C 15.097656 -48.046875 17.039062 -48.515625 19.15625 -48.515625 C 21.238281 -48.515625 22.976562 -47.992188 24.375 -46.953125 C 25.78125 -45.910156 26.90625 -44.59375 27.75 -43 C 28.601562 -41.40625 29.195312 -39.664062 29.53125 -37.78125 C 29.875 -35.894531 30.046875 -34.101562 30.046875 -32.40625 Z M 30.046875 -32.40625 "/></g></g><g transform="translate(211.978719, 195.234941)"><g><path d="M 30.8125 -16.484375 C 30.8125 -15.765625 30.800781 -14.691406 30.78125 -13.265625 C 30.757812 -11.847656 30.691406 -10.363281 30.578125 -8.8125 C 30.472656 -7.269531 30.335938 -5.804688 30.171875 -4.421875 C 30.003906 -3.046875 29.789062 -2.039062 29.53125 -1.40625 C 29.195312 -0.59375 28.753906 0.109375 28.203125 0.703125 C 27.648438 1.296875 26.90625 1.59375 25.96875 1.59375 C 24.53125 1.59375 23.492188 1.019531 22.859375 -0.125 C 22.222656 -1.269531 21.796875 -2.691406 21.578125 -4.390625 C 21.367188 -6.085938 21.285156 -7.929688 21.328125 -9.921875 C 21.367188 -11.921875 21.347656 -13.769531 21.265625 -15.46875 C 21.179688 -17.164062 20.945312 -18.585938 20.5625 -19.734375 C 20.175781 -20.878906 19.476562 -21.453125 18.46875 -21.453125 C 17.0625 -21.453125 15.984375 -21.226562 15.234375 -20.78125 C 14.492188 -20.332031 13.960938 -19.75 13.640625 -19.03125 C 13.328125 -18.3125 13.140625 -17.484375 13.078125 -16.546875 C 13.015625 -15.617188 12.941406 -14.644531 12.859375 -13.625 C 12.773438 -12.644531 12.710938 -11.328125 12.671875 -9.671875 C 12.628906 -8.015625 12.4375 -6.378906 12.09375 -4.765625 C 11.757812 -3.160156 11.195312 -1.773438 10.40625 -0.609375 C 9.625 0.554688 8.46875 1.140625 6.9375 1.140625 C 6 1.140625 5.242188 0.78125 4.671875 0.0625 C 4.097656 -0.65625 3.640625 -1.585938 3.296875 -2.734375 C 2.960938 -3.878906 2.722656 -5.148438 2.578125 -6.546875 C 2.429688 -7.953125 2.347656 -9.320312 2.328125 -10.65625 C 2.304688 -12 2.304688 -13.222656 2.328125 -14.328125 C 2.347656 -15.429688 2.359375 -16.257812 2.359375 -16.8125 C 2.359375 -17.65625 2.390625 -19.050781 2.453125 -21 C 2.515625 -22.957031 2.648438 -25.132812 2.859375 -27.53125 C 3.078125 -29.925781 3.351562 -32.394531 3.6875 -34.9375 C 4.03125 -37.488281 4.476562 -39.816406 5.03125 -41.921875 C 5.582031 -44.023438 6.25 -45.734375 7.03125 -47.046875 C 7.820312 -48.359375 8.742188 -48.992188 9.796875 -48.953125 C 10.484375 -48.910156 11.066406 -48.613281 11.546875 -48.0625 C 12.035156 -47.507812 12.4375 -46.796875 12.75 -45.921875 C 13.070312 -45.054688 13.335938 -44.113281 13.546875 -43.09375 C 13.765625 -42.070312 13.925781 -41.0625 14.03125 -40.0625 C 14.144531 -39.070312 14.210938 -38.148438 14.234375 -37.296875 C 14.253906 -36.453125 14.265625 -35.796875 14.265625 -35.328125 C 14.265625 -34.222656 14.238281 -33.117188 14.1875 -32.015625 C 14.144531 -30.910156 14.082031 -29.804688 14 -28.703125 C 14.976562 -30.023438 16.285156 -31.109375 17.921875 -31.953125 C 19.554688 -32.804688 21.203125 -33.234375 22.859375 -33.234375 C 24.972656 -33.234375 26.570312 -32.648438 27.65625 -31.484375 C 28.738281 -30.316406 29.515625 -28.875 29.984375 -27.15625 C 30.453125 -25.4375 30.707031 -23.609375 30.75 -21.671875 C 30.789062 -19.742188 30.8125 -18.015625 30.8125 -16.484375 Z M 30.8125 -16.484375 "/></g></g><g transform="translate(245.403664, 195.234941)"><g><path d="M 28.96875 -8.96875 C 28.96875 -8.207031 28.9375 -7.210938 28.875 -5.984375 C 28.8125 -4.753906 28.628906 -3.554688 28.328125 -2.390625 C 28.035156 -1.222656 27.566406 -0.21875 26.921875 0.625 C 26.285156 1.476562 25.394531 1.90625 24.25 1.90625 C 22.6875 1.90625 21.476562 1.394531 20.625 0.375 C 19.78125 -0.632812 19.378906 -1.90625 19.421875 -3.4375 C 18.054688 -2.25 16.515625 -1.316406 14.796875 -0.640625 C 13.078125 0.0351562 11.328125 0.375 9.546875 0.375 C 8.316406 0.375 7.148438 0.078125 6.046875 -0.515625 C 4.941406 -1.109375 3.960938 -1.867188 3.109375 -2.796875 C 2.265625 -3.734375 1.585938 -4.785156 1.078125 -5.953125 C 0.566406 -7.117188 0.3125 -8.273438 0.3125 -9.421875 C 0.3125 -11.460938 0.9375 -13.242188 2.1875 -14.765625 C 3.445312 -16.296875 4.988281 -17.601562 6.8125 -18.6875 C 8.632812 -19.769531 10.570312 -20.628906 12.625 -21.265625 C 14.6875 -21.898438 16.523438 -22.320312 18.140625 -22.53125 C 18.140625 -22.75 18.148438 -22.941406 18.171875 -23.109375 C 18.191406 -23.273438 18.203125 -23.46875 18.203125 -23.6875 C 18.203125 -25 17.84375 -26.054688 17.125 -26.859375 C 16.40625 -27.671875 15.382812 -28.078125 14.0625 -28.078125 C 13.007812 -28.078125 12.097656 -27.894531 11.328125 -27.53125 C 10.566406 -27.164062 9.847656 -26.757812 9.171875 -26.3125 C 8.492188 -25.875 7.8125 -25.472656 7.125 -25.109375 C 6.445312 -24.753906 5.6875 -24.578125 4.84375 -24.578125 C 3.90625 -24.578125 3.109375 -24.875 2.453125 -25.46875 C 1.796875 -26.0625 1.46875 -26.820312 1.46875 -27.75 C 1.46875 -29.15625 1.878906 -30.429688 2.703125 -31.578125 C 3.535156 -32.722656 4.578125 -33.6875 5.828125 -34.46875 C 7.078125 -35.257812 8.429688 -35.875 9.890625 -36.3125 C 11.359375 -36.757812 12.707031 -36.984375 13.9375 -36.984375 C 15.082031 -36.984375 16.226562 -36.84375 17.375 -36.5625 C 18.519531 -36.289062 19.601562 -35.867188 20.625 -35.296875 C 21.644531 -34.722656 22.566406 -34.019531 23.390625 -33.1875 C 24.222656 -32.363281 24.894531 -31.398438 25.40625 -30.296875 C 26.164062 -28.734375 26.78125 -27.066406 27.25 -25.296875 C 27.71875 -23.535156 28.078125 -21.734375 28.328125 -19.890625 C 28.578125 -18.046875 28.742188 -16.203125 28.828125 -14.359375 C 28.921875 -12.515625 28.96875 -10.71875 28.96875 -8.96875 Z M 18.78125 -11.015625 L 18.59375 -15.34375 C 18.507812 -15.34375 18.421875 -15.351562 18.328125 -15.375 C 18.242188 -15.394531 18.160156 -15.40625 18.078125 -15.40625 C 17.523438 -15.40625 16.832031 -15.265625 16 -14.984375 C 15.175781 -14.710938 14.382812 -14.332031 13.625 -13.84375 C 12.863281 -13.351562 12.21875 -12.8125 11.6875 -12.21875 C 11.15625 -11.625 10.890625 -11.007812 10.890625 -10.375 C 10.890625 -9.78125 11.097656 -9.375 11.515625 -9.15625 C 11.941406 -8.945312 12.429688 -8.84375 12.984375 -8.84375 C 13.921875 -8.84375 14.914062 -9.085938 15.96875 -9.578125 C 17.03125 -10.066406 17.96875 -10.546875 18.78125 -11.015625 Z M 18.78125 -11.015625 "/></g></g><g transform="translate(276.281947, 195.234941)"><g><path d="M 16.75 2.296875 C 13.726562 2.296875 11.378906 1.898438 9.703125 1.109375 C 8.023438 0.328125 6.769531 -0.78125 5.9375 -2.21875 C 5.113281 -3.664062 4.617188 -5.40625 4.453125 -7.4375 C 4.285156 -9.476562 4.203125 -11.753906 4.203125 -14.265625 C 4.203125 -16.253906 4.265625 -18.253906 4.390625 -20.265625 C 4.515625 -22.285156 4.707031 -24.441406 4.96875 -26.734375 C 4.375 -26.734375 3.90625 -26.722656 3.5625 -26.703125 C 3.226562 -26.679688 2.953125 -26.671875 2.734375 -26.671875 C 1.378906 -26.671875 0.203125 -26.96875 -0.796875 -27.5625 C -1.796875 -28.15625 -2.296875 -29.066406 -2.296875 -30.296875 C -2.296875 -31.066406 -2.007812 -31.75 -1.4375 -32.34375 C -0.863281 -32.9375 -0.132812 -33.441406 0.75 -33.859375 C 1.644531 -34.285156 2.613281 -34.625 3.65625 -34.875 C 4.695312 -35.132812 5.6875 -35.304688 6.625 -35.390625 C 6.625 -36.578125 6.707031 -37.890625 6.875 -39.328125 C 7.039062 -40.773438 7.347656 -42.125 7.796875 -43.375 C 8.242188 -44.632812 8.847656 -45.6875 9.609375 -46.53125 C 10.378906 -47.382812 11.359375 -47.8125 12.546875 -47.8125 C 13.222656 -47.8125 13.828125 -47.609375 14.359375 -47.203125 C 14.890625 -46.796875 15.320312 -46.285156 15.65625 -45.671875 C 16 -45.054688 16.253906 -44.367188 16.421875 -43.609375 C 16.585938 -42.847656 16.671875 -42.101562 16.671875 -41.375 C 16.671875 -40.53125 16.609375 -39.660156 16.484375 -38.765625 C 16.359375 -37.878906 16.125 -36.773438 15.78125 -35.453125 C 16.507812 -35.535156 17 -35.585938 17.25 -35.609375 C 17.507812 -35.640625 17.742188 -35.65625 17.953125 -35.65625 C 18.671875 -35.65625 19.421875 -35.585938 20.203125 -35.453125 C 20.992188 -35.328125 21.71875 -35.113281 22.375 -34.8125 C 23.03125 -34.519531 23.570312 -34.128906 24 -33.640625 C 24.425781 -33.148438 24.640625 -32.566406 24.640625 -31.890625 C 24.640625 -31.128906 24.332031 -30.453125 23.71875 -29.859375 C 23.101562 -29.265625 22.328125 -28.753906 21.390625 -28.328125 C 20.453125 -27.898438 19.453125 -27.566406 18.390625 -27.328125 C 17.335938 -27.097656 16.34375 -26.941406 15.40625 -26.859375 C 15.15625 -25.117188 14.972656 -23.515625 14.859375 -22.046875 C 14.753906 -20.585938 14.640625 -19.117188 14.515625 -17.640625 C 14.429688 -16.910156 14.359375 -16.175781 14.296875 -15.4375 C 14.234375 -14.695312 14.203125 -13.941406 14.203125 -13.171875 C 14.203125 -12.617188 14.222656 -11.972656 14.265625 -11.234375 C 14.304688 -10.492188 14.453125 -9.78125 14.703125 -9.09375 C 14.960938 -8.414062 15.367188 -7.832031 15.921875 -7.34375 C 16.472656 -6.863281 17.234375 -6.625 18.203125 -6.625 C 18.796875 -6.625 19.410156 -6.675781 20.046875 -6.78125 C 20.679688 -6.882812 21.320312 -6.9375 21.96875 -6.9375 C 23.070312 -6.9375 23.863281 -6.550781 24.34375 -5.78125 C 24.832031 -5.019531 25.078125 -4.046875 25.078125 -2.859375 C 25.078125 -1.972656 24.8125 -1.195312 24.28125 -0.53125 C 23.75 0.125 23.082031 0.648438 22.28125 1.046875 C 21.476562 1.453125 20.578125 1.757812 19.578125 1.96875 C 18.578125 2.1875 17.632812 2.296875 16.75 2.296875 Z M 16.75 2.296875 "/></g></g></g></svg>