<svg xmlns="http://www.w3.org/2000/svg" xmlns:xlink="http://www.w3.org/1999/xlink" width="500" zoomAndPan="magnify" viewBox="0 0 375 374.999991" height="500" preserveAspectRatio="xMidYMid meet" version="1.0"><defs><clipPath id="f32e37dfd5"><path d="M 75.640625 60.792969 L 299.359375 60.792969 L 299.359375 294.992188 L 75.640625 294.992188 Z M 75.640625 60.792969 " clip-rule="nonzero"/></clipPath><clipPath id="32f030c9dd"><path d="M 138.640625 60.792969 L 236.359375 60.792969 C 253.066406 60.792969 269.09375 67.429688 280.90625 79.246094 C 292.722656 91.058594 299.359375 107.082031 299.359375 123.792969 L 299.359375 231.992188 C 299.359375 248.699219 292.722656 264.726562 280.90625 276.539062 C 269.09375 288.355469 253.066406 294.992188 236.359375 294.992188 L 138.640625 294.992188 C 103.847656 294.992188 75.640625 266.785156 75.640625 231.992188 L 75.640625 123.792969 C 75.640625 88.996094 103.847656 60.792969 138.640625 60.792969 Z M 138.640625 60.792969 " clip-rule="nonzero"/></clipPath><clipPath id="ad821998be"><path d="M 75.640625 60.796875 L 299.140625 60.796875 L 299.140625 294.792969 L 75.640625 294.792969 Z M 75.640625 60.796875 " clip-rule="nonzero"/></clipPath><clipPath id="5004d4ba95"><path d="M 138.636719 60.796875 L 236.355469 60.796875 C 253.0625 60.796875 269.085938 67.433594 280.898438 79.246094 C 292.714844 91.0625 299.351562 107.085938 299.351562 123.792969 L 299.351562 231.988281 C 299.351562 248.699219 292.714844 264.722656 280.898438 276.535156 C 269.085938 288.351562 253.0625 294.988281 236.355469 294.988281 L 138.636719 294.988281 C 103.84375 294.988281 75.640625 266.78125 75.640625 231.988281 L 75.640625 123.792969 C 75.640625 89 103.84375 60.796875 138.636719 60.796875 Z M 138.636719 60.796875 " clip-rule="nonzero"/></clipPath><clipPath id="0bdaf1c0cf"><path d="M 117 131 L 231 131 L 231 252.890625 L 117 252.890625 Z M 117 131 " clip-rule="nonzero"/></clipPath><clipPath id="f1668395c8"><path d="M 134 102.890625 L 266.984375 102.890625 L 266.984375 227 L 134 227 Z M 134 102.890625 " clip-rule="nonzero"/></clipPath></defs><g clip-path="url(#f32e37dfd5)"><g clip-path="url(#32f030c9dd)"><path fill="#38b6ff" d="M 75.640625 60.792969 L 299.359375 60.792969 L 299.359375 294.992188 L 75.640625 294.992188 Z M 75.640625 60.792969 " fill-opacity="1" fill-rule="nonzero"/></g></g><g clip-path="url(#ad821998be)"><g clip-path="url(#5004d4ba95)"><path stroke-linecap="butt" transform="matrix(0.75, 0, 0, 0.75, 75.640524, 60.795574)" fill="none" stroke-linejoin="miter" d="M 83.994932 0.00173412 L 214.286608 0.00173412 C 236.562651 0.00173412 257.927236 8.850693 273.677237 24.600694 C 289.432446 40.355903 298.281405 61.720488 298.281405 83.996531 L 298.281405 228.256957 C 298.281405 250.538209 289.432446 271.902794 273.677237 287.652795 C 257.927236 303.408004 236.562651 312.256963 214.286608 312.256963 L 83.994932 312.256963 C 37.604304 312.256963 0.000135289 274.647585 0.000135289 228.256957 L 0.000135289 83.996531 C 0.000135289 37.605903 37.604304 0.00173412 83.994932 0.00173412 Z M 83.994932 0.00173412 " stroke="#000000" stroke-width="4" stroke-opacity="1" stroke-miterlimit="4"/></g></g><g clip-path="url(#0bdaf1c0cf)"><path fill="#ffffff" d="M 117.105469 250.234375 C 117.105469 251.046875 117.519531 251.839844 118.265625 252.300781 C 119.40625 252.988281 120.886719 252.632812 121.585938 251.488281 C 149.457031 205.792969 185.804688 167.023438 229.601562 136.273438 C 230.699219 135.5 230.960938 134 230.199219 132.90625 C 229.425781 131.8125 227.921875 131.546875 226.828125 132.3125 C 182.472656 163.457031 145.683594 202.710938 117.453125 248.980469 C 117.21875 249.367188 117.105469 249.800781 117.105469 250.234375 " fill-opacity="1" fill-rule="nonzero"/></g><g clip-path="url(#f1668395c8)"><path fill="#ffffff" d="M 134.011719 192.265625 C 134.011719 198.914062 134.757812 203.484375 135.351562 207.152344 C 136.230469 212.597656 136.816406 216.191406 134.804688 223.164062 C 134.449219 224.449219 135.183594 225.789062 136.457031 226.15625 C 137.738281 226.523438 139.078125 225.789062 139.449219 224.503906 C 141.757812 216.492188 141.03125 212.03125 140.117188 206.378906 C 139.523438 202.699219 138.84375 198.527344 138.84375 192.265625 C 138.84375 171.082031 161.566406 142.738281 183.972656 125.5 C 185.246094 130.699219 187.230469 135.671875 189.890625 140.320312 C 190.398438 141.226562 191.4375 141.699219 192.457031 141.492188 C 193.476562 141.292969 194.257812 140.453125 194.378906 139.417969 C 195.445312 130.847656 197.691406 122.441406 201.0625 114.429688 C 209.515625 110.042969 217.222656 107.722656 223.386719 107.722656 C 242.085938 107.722656 262.03125 109.589844 262.03125 131.878906 C 262.03125 147.003906 248.925781 153.644531 235.046875 160.664062 C 226.488281 165.003906 217.640625 169.496094 211.894531 176.195312 C 208.5625 180.101562 205.695312 184.527344 202.929688 188.8125 L 202.324219 189.734375 C 193.503906 192.054688 184.398438 192.90625 175.246094 192.273438 C 174.132812 192.1875 173.121094 192.878906 172.773438 193.933594 C 172.433594 194.992188 172.859375 196.140625 173.800781 196.726562 C 179.425781 200.238281 185.53125 202.652344 191.976562 203.9375 C 184.878906 211.738281 174.246094 218.835938 153.335938 218.835938 C 152.007812 218.835938 150.921875 219.917969 150.921875 221.25 C 150.921875 222.578125 152.007812 223.664062 153.335938 223.664062 C 179.304688 223.664062 191.105469 213.003906 198.496094 203.71875 C 199.03125 203.03125 199.164062 202.105469 198.835938 201.292969 C 198.496094 200.480469 197.75 199.917969 196.882812 199.820312 C 193.023438 199.359375 189.296875 198.480469 185.71875 197.1875 C 192.058594 196.859375 198.34375 195.839844 204.484375 194.160156 C 205.050781 194 205.542969 193.640625 205.863281 193.140625 L 206.976562 191.433594 C 209.789062 187.09375 212.441406 183 215.5625 179.335938 C 220.675781 173.363281 229.09375 169.101562 237.238281 164.988281 C 251.804688 157.597656 266.863281 149.964844 266.863281 131.878906 C 266.863281 102.890625 237.5 102.890625 223.386719 102.890625 C 216.1875 102.890625 207.703125 105.441406 198.183594 110.488281 C 197.644531 110.722656 197.203125 111.15625 196.964844 111.714844 C 194.257812 118.007812 192.210938 124.527344 190.84375 131.1875 C 189.53125 127.878906 188.558594 124.421875 187.9375 120.886719 C 187.796875 120.054688 187.238281 119.375 186.464844 119.0625 C 185.691406 118.753906 184.8125 118.855469 184.144531 119.339844 C 159.234375 137.425781 134.011719 168.277344 134.011719 192.265625 " fill-opacity="1" fill-rule="nonzero"/></g><path fill="#ffffff" d="M 136.429688 235.742188 C 136.429688 236.203125 136.5625 236.667969 136.835938 237.082031 C 137.578125 238.195312 139.070312 238.488281 140.183594 237.753906 C 142.976562 235.894531 145.835938 236.335938 149.46875 236.894531 C 153.695312 237.542969 158.488281 238.28125 164.082031 235.488281 C 165.273438 234.894531 165.753906 233.441406 165.160156 232.242188 C 164.566406 231.054688 163.113281 230.570312 161.914062 231.167969 C 157.707031 233.28125 154.0625 232.714844 150.203125 232.117188 C 146.101562 231.488281 141.855469 230.835938 137.503906 233.734375 C 136.804688 234.195312 136.429688 234.960938 136.429688 235.742188 " fill-opacity="1" fill-rule="nonzero"/><path fill="#ffffff" d="M 120.777344 206.011719 C 120.777344 210.210938 122.199219 213.484375 123.691406 216.882812 C 125.710938 221.503906 127.804688 226.269531 126.851562 234.828125 C 126.71875 236.136719 127.664062 237.347656 128.984375 237.488281 C 130.316406 237.640625 131.503906 236.6875 131.65625 235.355469 C 132.75 225.523438 130.183594 219.664062 128.117188 214.945312 C 126.011719 210.152344 124.503906 206.691406 126.644531 200.273438 C 127.070312 199.011719 126.378906 197.640625 125.117188 197.21875 C 123.851562 196.792969 122.484375 197.480469 122.058594 198.746094 C 121.144531 201.5 120.777344 203.878906 120.777344 206.011719 " fill-opacity="1" fill-rule="nonzero"/></svg>